<?xml version="1.0" encoding="UTF-8" standalone="no"?>
<svg
   version="1.1"
   viewBox="0.00 0.00 1556.00 1310.00"
   id="svg11"
   sodipodi:docname="hermes_0020.svg"
   inkscape:version="1.3 (0e150ed6c4, 2023-07-21)"
   inkscape:export-filename="hermes_0020.png"
   inkscape:export-xdpi="96"
   inkscape:export-ydpi="96"
   xmlns:inkscape="http://www.inkscape.org/namespaces/inkscape"
   xmlns:sodipodi="http://sodipodi.sourceforge.net/DTD/sodipodi-0.dtd"
   xmlns:xlink="http://www.w3.org/1999/xlink"
   xmlns="http://www.w3.org/2000/svg"
   xmlns:svg="http://www.w3.org/2000/svg">
  <defs
     id="defs11" />
  <sodipodi:namedview
     id="namedview11"
     pagecolor="#ffffff"
     bordercolor="#000000"
     borderopacity="0.25"
     inkscape:showpageshadow="2"
     inkscape:pageopacity="0.0"
     inkscape:pagecheckerboard="0"
     inkscape:deskcolor="#d1d1d1"
     inkscape:zoom="0.62671756"
     inkscape:cx="777.86236"
     inkscape:cy="655"
     inkscape:window-width="1874"
     inkscape:window-height="1001"
     inkscape:window-x="74"
     inkscape:window-y="0"
     inkscape:window-maximized="0"
     inkscape:current-layer="svg11" />
  <ellipse
     style="opacity:1;mix-blend-mode:normal;fill:#ffac09;fill-opacity:1;stroke:none;stroke-width:0.821;stroke-dasharray:none;stroke-opacity:1"
     id="path12"
     cx="785.04254"
     cy="537.72223"
     rx="164.34836"
     ry="167.53958" />
  <path
     fill="#feda75"
     d="m 659.25371,444.81397 c 5.5503,2.14192 12.1098,5.44718 18.5399,7.29952 18.7813,5.39725 37.4851,6.02635 56.7194,4.58841 q 4.0322,-0.30456 8.5777,-0.95862 c 10.7901,-1.55777 19.0357,-3.47002 28.5191,-5.58199 q 4.1747,-0.92866 8.4183,-2.18187 12.6272,-3.71466 25.3538,-6.95501 4.3815,-1.1134 8.4958,-1.64763 9.1255,-1.1833 18.3026,-1.73751 c 10.6134,-0.64407 20.955,1.30813 30.9688,5.2225 15.8445,6.2011 29.4983,20.29087 35.8895,38.3749 6.1196,17.30515 3.3724,38.53967 -12.761,47.01749 -12.6014,6.62549 -29.0238,1.97217 -40.2107,-6.69039 -5.6107,-4.34377 -8.8322,-6.80024 -14.6672,-8.74744 q -12.2261,-4.07415 -24.8794,-5.58698 -7.879,-0.93865 -29.869,-1.99213 -3.8727,-0.18474 -8.608,-0.53924 -11.2688,-0.84378 -27.2901,-1.61767 -7.3314,-0.35449 -15.7367,-2.37159 -10.9712,-2.63122 -24.0901,-9.26171 -12.4332,-6.28098 -23.8703,-14.71387 c -8.4613,-6.24104 -15.9092,-16.10687 -21.1447,-25.93277 -1.6345,-3.07059 -0.3149,-7.39937 3.3423,-5.9864 z"
     id="path13"
     style="fill:#ffffff;fill-opacity:1;stroke-width:0.464027" />
  <use
     x="0"
     y="0"
     xlink:href="#path13"
     id="use13"
     transform="matrix(1,0,0,-1,3.1911807,1074.2187)" />
</svg>
